<?xml version="1.0" encoding="UTF-8"?> <svg xmlns="http://www.w3.org/2000/svg" width="322" height="322" viewBox="0 0 322 322" fill="none"> <path d="M123.085 9.93848C144.955 9.93797 166.367 16.2112 184.78 28.0139C203.191 39.8164 217.831 56.653 226.963 76.526C236.094 96.3984 239.332 118.474 236.295 140.132C233.257 161.791 224.07 182.123 209.825 198.718L309.086 297.979L296.651 310.412L197.373 211.134C183.371 223.107 166.683 231.519 148.729 235.653C130.777 239.788 112.091 239.522 94.2621 234.878C76.4342 230.235 59.9926 221.351 46.3375 208.983C32.6824 196.617 22.2188 181.132 15.8374 163.85C9.4562 146.567 7.34642 127.999 9.68796 109.725C12.0294 91.4515 18.7528 74.014 29.2854 58.899C39.8179 43.7836 53.8477 31.4378 70.1797 22.9131C86.5112 14.3883 104.662 9.93712 123.085 9.93848ZM123.085 27.5255C97.4321 27.5255 72.828 37.7165 54.6878 55.8567C36.5478 73.9961 26.3567 98.5999 26.3567 124.254C26.3567 149.908 36.5478 174.511 54.6878 192.651C72.828 210.791 97.4321 220.983 123.085 220.983C148.739 220.983 173.342 210.791 191.483 192.651C209.623 174.511 219.814 149.908 219.814 124.254C219.814 98.5999 209.623 73.9961 191.483 55.8567C173.342 37.7165 148.739 27.5255 123.085 27.5255Z" fill="#887A6C"></path> </svg> 